# xmcd
#
# Track frame offsets: 
#        150
#        3613
#        16523
#        29525
#        30797
#        44814
#        45306
#        59723
#        60402
#        76222
#        84711
#        104136
#        117564
#        129218
#        145417
#        150929
#        152615
#        155154
#        157806
#        170144
#        186552
#        205874
#        224817
#        230923
#        235410
#        238181
#        251704
#        263189
#        277932
#        295790
#        309617
#
# Disc length: 4204 seconds
#
# Revision: 2
# Processed by: cddbd v1.5.2PL0 Copyright (c) Steve Scherf et al.
# Submitted via: ExactAudioCopy v0.99pb5
#
DISCID=c2106a1f
DTITLE=Cream - Cream Remasters - Outtakes and Alternates [CD2]
DYEAR=2008
DGENRE=Blues
TTITLE0=Interview
TTITLE1=I Feel Free
TTITLE2=NSU
TTITLE3=Intro
TTITLE4=Sweet Wine
TTITLE5=Outro
TTITLE6=Sleepy Time Time
TTITLE7=Intro
TTITLE8=Cats Squirrel
TTITLE9=Four Until Late
TTITLE10=I'm So Glad
TTITLE11=Rollin' and Tumblin'
TTITLE12=Toad
TTITLE13=Traintime
TTITLE14=La La Song
TTITLE15=Singalong
TTITLE16=Tuba Tune
TTITLE17=Spike's Theme
TTITLE18=Blue Moon
TTITLE19=Polonaise Jam
TTITLE20=Barrelhouse Blues
TTITLE21=White Room
TTITLE22=Falstaff Beer
TTITLE23=Falstaff Beer
TTITLE24=Interview
TTITLE25=Born Under A Bad Sign
TTITLE26=Anyone for Tennis
TTITLE27=Pressed Rat and Warthog
TTITLE28=Politician
TTITLE29=White Room
TTITLE30=On Top of the World
EXTD=
EXTT0=
EXTT1=
EXTT2=
EXTT3=
EXTT4=
EXTT5=
EXTT6=
EXTT7=
EXTT8=
EXTT9=
EXTT10=
EXTT11=
EXTT12=
EXTT13=
EXTT14=
EXTT15=
EXTT16=
EXTT17=
EXTT18=
EXTT19=
EXTT20=
EXTT21=
EXTT22=
EXTT23=
EXTT24=
EXTT25=
EXTT26=
EXTT27=
EXTT28=
EXTT29=
EXTT30=
PLAYORDER=
